# xmcd CD database file
#
# Track frame offsets:
#	150
#	16620
#	36325
#	54455
#	73565
#	92560
#	109120
#	127310
#	144605
#	162980
#
# Disc length: 2438 seconds
#
# Revision: 2
# Processed by: cddbd v1.5PL3 Copyright (c) Steve Scherf et al.
# Submitted via: CDex 1.50
#
DISCID=8709840a
DTITLE=石田ひかり - HIKARI Legend
DYEAR=1987
DGENRE=JPop
TTITLE0=ロマンチックでいこう
TTITLE1=く・ち・び・る・▽2
TTITLE2=潮風の秘密
TTITLE3=星のフェアリー
TTITLE4=TENDERNESS
TTITLE5=LEGENDLY
TTITLE6=金色のネックレス
TTITLE7=エメラルドの砂
TTITLE8=雨の帰り道
TTITLE9=今のままで・・・
EXTD=YEAR: 1987/09/21
EXTT0=
EXTT1=
EXTT2=
EXTT3=
EXTT4=
EXTT5=
EXTT6=
EXTT7=
EXTT8=
EXTT9=
PLAYORDER=
